<svg version="1.2" baseProfile="tiny-ps" xmlns="http://www.w3.org/2000/svg" viewBox="0 0 1292 208" width="1292" height="208">
	<title>ZORRAK_logo_humrova-ai</title>
	<style>
		tspan { white-space:pre }
		.shp0 { fill: #e1554b } 
		.shp1 { fill: #ffffff } 
	</style>
	<g id="Vrstva 1">
		<g id="&lt;Group&gt;">
			<path id="&lt;Path&gt;" class="shp0" d="M554.87 138.55C581.95 127.43 597.34 105.77 597.34 75.84C597.34 31.09 562.28 4.01 505.28 4.01L414.07 4.01L414.07 35.87C421.11 36.76 427.62 37.72 432.6 38.49C438.14 39.36 442.21 43.87 442.23 49.18L442.37 99.31C442.39 104.64 438.32 109.18 432.75 110.05C427.73 110.84 421.17 111.8 414.07 112.71L414.07 203.53L476.2 203.53L476.2 147.1L493.02 147.1L534.35 203.53L602.76 203.53L554.87 138.55Z" />
			<path id="&lt;Compound Path&gt;" class="shp0" d="M5.52 203.99L5.52 165.51L101.29 56.06L5.52 56.06L5.52 4.47L185.95 4.47L185.95 42.95L90.46 152.4L185.95 152.4L185.95 203.99L5.52 203.99Z" />
			<path id="&lt;Compound Path&gt;" class="shp0" d="M186.33 104.12C186.33 46.33 230.7 4.16 292.04 4.16C353.39 4.16 397.75 46.06 397.75 103.57C397.75 161.36 353.11 203.53 291.77 203.53C230.7 203.53 186.33 161.63 186.33 104.12Z" />
			<path id="&lt;Compound Path&gt;" fill-rule="evenodd" class="shp0" d="M999.31 203.53L987.91 173.33L906.98 173.33L895.3 203.53L830.89 203.53L916.67 4.47L978.79 4.47L1064.56 203.53L999.31 203.53ZM923.22 130.87L971.67 130.87L947.73 67.6L923.22 130.87Z" />
			<path id="&lt;Compound Path&gt;" class="shp0" d="M1221.66 203.53L1174.17 132.72L1147.15 163.44L1147.15 203.53L1085.16 203.53L1085.16 4.47L1147.15 4.47L1147.15 90.35L1213.7 4.47L1286.48 4.47L1212.77 90.88L1286.48 203.53L1221.66 203.53Z" />
			<g id="&lt;Group&gt;">
				<path id="&lt;Path&gt;" class="shp1" d="M234.11 118.36L272.65 135.82C273.25 136.12 273.96 136.1 274.54 135.79L284.55 130.34C286.11 129.65 286.21 127.53 284.72 126.67C282.87 125.61 280.95 124.58 278.98 123.6C260.47 114.34 244.55 112.8 234.27 116.33C233.35 116.65 233.25 117.89 234.11 118.36Z" />
				<path id="&lt;Path&gt;" class="shp1" d="M294.42 129.76C293.6 129.63 292.78 129.99 292.32 130.67L281.2 147C280.51 148.02 279.36 148.66 278.11 148.73L227.01 151.69C226.18 151.74 225.58 152.47 225.71 153.27C227.6 164.93 249.76 173.83 276.7 173.42C304.79 172.99 327.44 162.59 327.29 150.2C327.17 140.65 313.53 132.7 294.42 129.76Z" />
				<path id="&lt;Path&gt;" class="shp1" d="M365.14 50.3C359.26 41.79 349.1 37.31 338.82 38.43C330.6 39.33 322.66 40.66 315.13 42.28C314.38 42.44 314.08 43.36 314.59 43.91C316.78 46.29 317.97 49.61 317.44 53.2C316.71 58.15 312.63 62.09 307.66 62.65C300.87 63.42 295.12 58.14 295.12 51.51C295.12 50.65 295.22 49.81 295.41 49C295.58 48.26 294.85 47.62 294.13 47.85C288.3 49.7 282.91 51.67 278.09 53.68C266.28 58.59 257.8 62.06 254.2 68.46C252.79 70.96 248.84 72.95 248.84 75.6C248.84 78.44 252.89 80.6 254.5 83.26C258.23 89.46 266.58 92.75 278.09 97.53C283.15 99.64 288.85 101.7 295.02 103.63C295.74 103.85 296.44 103.23 296.3 102.48C295.99 100.91 296.01 99.21 296.48 97.45C297.61 93.22 301.19 89.95 305.52 89.28C312.51 88.2 318.53 93.58 318.53 100.36C318.53 103.12 317.53 105.64 315.88 107.59C315.4 108.16 315.71 109.04 316.44 109.2C330.43 112.13 345.81 114.04 361.63 114.04C364.66 114.04 367.98 113.91 371.45 113.69C376.76 113.36 380.93 108.97 380.98 103.66C380.98 103.37 380.98 103.09 380.98 102.8C380.98 82.87 375.26 64.95 365.14 50.3Z" />
				<path id="&lt;Path&gt;" class="shp1" d="M475.14 49.43L475.14 101.11C475.14 103.05 473.57 104.63 471.63 104.63L460.64 104.63C458.7 104.63 457.13 103.05 457.13 101.11L457.13 49.43C457.13 47.49 458.7 45.92 460.64 45.92L471.63 45.92C473.57 45.92 475.14 47.49 475.14 49.43Z" />
				<path id="&lt;Path&gt;" class="shp1" d="M490.16 47.73C490.16 50.38 490.16 98.41 490.16 101.06C490.16 109.58 497.07 116.49 505.59 116.49C514.11 116.49 521.02 109.58 521.02 101.06C521.02 98.41 520.35 95.92 519.18 93.75C525.26 89.47 529.24 82.4 529.24 74.4C529.24 66.4 525.26 59.33 519.18 55.05C520.35 52.87 521.02 50.38 521.02 47.73C521.02 39.21 514.11 32.3 505.59 32.3C497.07 32.3 490.16 39.21 490.16 47.73Z" />
				<path id="&lt;Path&gt;" class="shp1" d="M432.6 38.49C427.62 37.72 421.11 36.76 414.07 35.87L414.07 112.71C421.17 111.8 427.73 110.84 432.75 110.05C438.32 109.18 442.39 104.64 442.37 99.31L442.23 49.18C442.21 43.87 438.14 39.36 432.6 38.49Z" />
			</g>
			<path id="&lt;Compound Path&gt;" fill-rule="evenodd" class="shp0" d="M811.76 203.53L743.35 203.53L702.02 147.1L685.2 147.1L685.2 203.53L623.07 203.53L623.07 4.01L714.28 4.01C771.28 4.01 806.34 31.09 806.34 75.84C806.34 105.77 790.95 127.43 763.87 138.55L811.76 203.53ZM744.02 72.36C744.02 57.35 731.84 49.14 712.58 49.14L685.39 49.14L685.39 96.15L712.58 96.15C731.84 96.15 744.02 88.22 744.02 72.36Z" />
		</g>
	</g>
</svg>