<svg version="1.2" baseProfile="tiny-ps" xmlns="http://www.w3.org/2000/svg" viewBox="0 0 1126 334" width="1126" height="334">
	<title>ZORAK_cista_prace_logo_humrova+modra_02-ai</title>
	<style>
		tspan { white-space:pre }
		.shp0 { fill: #191836 } 
		.shp1 { fill: #e1554b } 
	</style>
	<g id="Vrstva 1">
		<path id="&lt;Path&gt;" class="shp0" d="M578.37 148.64C605.45 137.53 620.84 115.86 620.84 85.94C620.84 41.19 585.78 14.11 528.78 14.11L437.57 14.11L437.57 45.97C444.61 46.86 451.12 47.82 456.1 48.59C461.64 49.45 465.71 53.97 465.73 59.27L465.87 109.41C465.89 114.73 461.82 119.28 456.25 120.15C451.23 120.93 444.67 121.9 437.57 122.8L437.57 213.63L499.7 213.63L499.7 157.19L516.52 157.19L557.85 213.63L626.26 213.63L578.37 148.64Z" />
		<path id="&lt;Compound Path&gt;" class="shp0" d="M29.02 214.08L29.02 175.6L124.79 66.15L29.02 66.15L29.02 14.56L209.45 14.56L209.45 53.04L113.96 162.49L209.45 162.49L209.45 214.08L29.02 214.08Z" />
		<path id="&lt;Compound Path&gt;" class="shp0" d="M209.83 114.21C209.83 56.43 254.2 14.25 315.54 14.25C376.89 14.25 421.25 56.16 421.25 113.67C421.25 171.45 376.61 213.63 315.27 213.63C254.2 213.63 209.83 171.73 209.83 114.21Z" />
		<path id="&lt;Compound Path&gt;" fill-rule="evenodd" class="shp0" d="M811.81 213.63L800.41 183.42L719.48 183.42L707.8 213.63L643.39 213.63L729.17 14.56L791.29 14.56L877.06 213.63L811.81 213.63ZM735.72 140.96L784.17 140.96L760.23 77.7L735.72 140.96Z" />
		<path id="&lt;Compound Path&gt;" class="shp0" d="M1034.16 213.63L986.67 142.82L959.65 173.53L959.65 213.63L897.66 213.63L897.66 14.56L959.65 14.56L959.65 100.45L1026.2 14.56L1098.98 14.56L1025.27 100.97L1098.98 213.63L1034.16 213.63Z" />
		<g id="&lt;Group&gt;">
			<path id="&lt;Path&gt;" class="shp1" d="M257.61 128.46L296.15 145.92C296.75 146.21 297.46 146.2 298.04 145.88L308.05 140.43C309.61 139.75 309.71 137.62 308.22 136.77C306.37 135.71 304.45 134.68 302.48 133.69C283.97 124.43 268.05 122.9 257.77 126.42C256.85 126.74 256.75 127.98 257.61 128.46Z" />
			<path id="&lt;Path&gt;" class="shp1" d="M317.92 139.85C317.1 139.73 316.28 140.09 315.82 140.76L304.7 157.09C304.01 158.11 302.86 158.75 301.61 158.83L250.51 161.78C249.68 161.83 249.08 162.57 249.21 163.36C251.1 175.03 273.26 183.93 300.2 183.51C328.29 183.08 350.94 172.69 350.79 160.3C350.67 150.74 337.03 142.79 317.92 139.85Z" />
			<path id="&lt;Path&gt;" class="shp1" d="M388.64 60.39C382.76 51.88 372.6 47.41 362.32 48.53C354.1 49.42 346.16 50.75 338.63 52.38C337.88 52.54 337.58 53.45 338.09 54.01C340.28 56.39 341.47 59.71 340.94 63.3C340.21 68.25 336.13 72.18 331.16 72.75C324.37 73.52 318.62 68.23 318.62 61.6C318.62 60.74 318.72 59.9 318.91 59.1C319.08 58.36 318.35 57.72 317.63 57.95C311.8 59.8 306.41 61.77 301.59 63.77C289.78 68.68 281.3 72.16 277.7 78.55C276.29 81.06 272.34 83.04 272.34 85.7C272.34 88.53 276.39 90.69 278 93.35C281.73 99.55 290.08 102.85 301.59 107.63C306.65 109.73 312.35 111.8 318.52 113.72C319.24 113.95 319.94 113.32 319.8 112.58C319.49 111 319.51 109.31 319.98 107.54C321.11 103.31 324.69 100.04 329.02 99.37C336.01 98.3 342.03 103.67 342.03 110.46C342.03 113.21 341.03 115.73 339.38 117.68C338.9 118.25 339.21 119.14 339.94 119.29C353.93 122.23 369.31 124.13 385.13 124.13C388.16 124.13 391.48 124.01 394.95 123.79C400.26 123.46 404.43 119.07 404.48 113.75C404.48 113.47 404.48 113.19 404.48 112.9C404.48 92.96 398.76 75.04 388.64 60.39Z" />
			<path id="&lt;Path&gt;" class="shp1" d="M498.64 59.53L498.64 111.21C498.64 113.15 497.07 114.72 495.13 114.72L484.14 114.72C482.2 114.72 480.63 113.15 480.63 111.21L480.63 59.53C480.63 57.59 482.2 56.02 484.14 56.02L495.13 56.02C497.07 56.02 498.64 57.59 498.64 59.53Z" />
			<path id="&lt;Path&gt;" class="shp1" d="M513.66 57.83C513.66 60.48 513.66 108.51 513.66 111.16C513.66 119.68 520.57 126.59 529.09 126.59C537.61 126.59 544.52 119.68 544.52 111.16C544.52 108.51 543.85 106.02 542.68 103.84C548.76 99.56 552.74 92.49 552.74 84.49C552.74 76.49 548.76 69.42 542.68 65.15C543.85 62.97 544.52 60.48 544.52 57.83C544.52 49.31 537.61 42.4 529.09 42.4C520.57 42.4 513.66 49.31 513.66 57.83Z" />
			<path id="&lt;Path&gt;" class="shp1" d="M456.1 48.59C451.12 47.82 444.61 46.86 437.57 45.97L437.57 122.8C444.67 121.9 451.23 120.93 456.25 120.15C461.82 119.28 465.89 114.73 465.87 109.41L465.73 59.27C465.71 53.97 461.64 49.45 456.1 48.59Z" />
		</g>
		<g id="&lt;Group&gt;">
			<path id="&lt;Path&gt;" class="shp0" d="M453.88 252.82C454.78 254.02 456.08 255.12 457.18 254.92C459.18 254.92 461.79 253.52 462.39 251.32C465.29 248.42 469.89 243.12 470.99 242.01C471.99 240.91 473.29 240.31 473.29 239.21C473.49 238.41 472.79 238.11 470.99 238.21C468.49 238.21 463.69 243.12 460.89 245.92C459.68 246.82 459.18 247.42 458.18 246.82C455.58 244.32 450.38 239.81 446.37 238.11C444.97 237.31 443.17 237.31 441.27 238.91C440.67 239.21 441.17 240.11 441.87 240.81C446.37 245.22 449.68 248.22 453.88 252.82Z" />
			<path id="&lt;Path&gt;" class="shp0" d="M496.92 254.95C499.03 254.95 500.73 252.55 500.73 250.54C500.83 247.54 497.83 242.34 494.02 242.34C491.42 242.34 488.32 244.34 488.32 246.64C488.32 250.14 493.02 254.95 496.92 254.95Z" />
			<path id="&lt;Compound Path&gt;" fill-rule="evenodd" class="shp0" d="M554.26 281.74C555.06 290.65 539.04 300.46 529.74 300.26C524.73 300.06 515.23 298.36 514.83 292.35C514.77 292.14 514.72 291.92 514.68 291.71C514.63 291.75 514.57 291.81 514.53 291.85C510.32 295.75 504.22 298.76 497.51 298.76C490.61 298.76 486.9 295.38 484.97 290.78C476.89 295.43 469.68 298.36 458.08 298.36C448.28 298.36 437.57 295.35 437.57 285.15C437.67 273.84 448.28 264.43 456.38 261.73C461.09 260.23 468.19 264.53 468.19 269.43C467.99 271.84 464.49 273.84 461.59 273.84C459.38 273.84 459.38 269.93 456.48 269.93C452.48 269.93 449.28 276.24 449.38 281.54C449.58 289.25 457.58 291.45 466.69 291.25C474.27 291.03 478.65 289.7 483.81 286.98C482.95 282.99 482.97 278.6 483.2 274.84C483.1 270.04 486.92 260.32 492.53 260.32C493.73 260.32 494.83 261.43 494.93 262.53C494.93 265.53 492.21 271.14 492.51 275.34C492.91 281.94 495.61 290.75 504.22 290.75C507.92 290.75 511.62 289.25 514.33 288.35C514.41 288.32 514.48 288.31 514.56 288.3C514.69 287.88 514.9 287.52 515.23 287.25C524.03 280.24 523.35 274.04 528.95 263.74C530.65 260.74 534.66 257.43 538.16 255.43C539.76 254.53 541.66 254.83 541.86 256.73C542.66 262.64 541.08 262.53 541.69 268.43C542.39 274.14 553.56 275.74 554.26 281.74ZM538.05 276.79C537.28 275.93 535.89 273.48 533.46 273.13C530.69 272.73 523.03 284.04 522.33 287.25C521.6 290.6 531.54 291.15 533.74 291.15C537.04 291.15 543.55 290.35 543.55 285.95C543.63 282.85 542.83 282.14 538.05 276.79Z" />
			<path id="&lt;Path&gt;" class="shp0" d="M617.7 255.12C619.71 255.12 624.21 252.42 625.41 251.22C627.51 249.12 634.52 243.92 634.52 240.21C634.52 239.21 630.61 238.11 628.51 238.21C627.21 238.41 626.71 239.01 626.51 239.71C624.51 244.02 621.21 247.12 618.61 250.92C617.9 251.62 615.1 255.12 617.7 255.12Z" />
			<path id="&lt;Path&gt;" class="shp0" d="M651.93 286.85C647.83 287.95 642.12 289.65 637.82 287.75C634.52 286.35 633.92 281.24 631.11 281.24C628.51 281.24 627.01 284.55 625.21 285.75C622.31 287.75 619.01 289.25 613.7 289.55C608.8 289.85 606.1 286.15 607 280.54C607.5 273.74 613.5 268.43 622.71 267.93C625.61 267.53 628.31 271.04 629.31 272.54C629.51 273.14 631.01 272.64 631.61 271.84C633.82 269.93 632.42 267.23 631.11 264.93C629.21 261.43 624.41 259.93 621.11 260.63C608.3 263.9 596.45 274.25 595.85 285.88C590.5 288.46 585.52 289.65 581.88 289.65C570.37 289.65 569.97 277.24 570.07 270.23C570.07 269.33 570.17 269.23 570.47 267.23C574.77 266.63 579.58 266.03 583.48 265.13C587.88 264.23 589.78 263.23 590.68 261.23C591.68 259.03 588.18 259.33 586.78 259.53C581.48 259.73 576.97 260.93 570.97 260.93C571.57 255.22 571.97 247.82 571.97 245.72C571.97 244.22 570.97 241.81 569.57 242.31C564.87 244.02 564.36 249.02 563.86 251.32L562.56 260.63L560.46 260.93C557.76 261.23 554.36 263.33 554.26 266.23C554.26 268.43 556.66 268.43 558.36 268.43C558.96 268.43 560.06 268.43 561.66 268.23C561.76 279.64 558.96 299.66 576.67 299.66C584.32 299.66 591.83 295.66 596.5 290.6C598.39 294.83 604.21 297.51 609.1 297.25C615.5 296.75 623.21 290.35 625.41 292.35C627.71 294.65 630.41 297.25 634.62 297.25C638.62 297.25 646.83 294.55 652.63 288.35C652.93 287.95 652.73 286.75 651.93 286.85Z" />
			<path id="&lt;Path&gt;" class="shp0" d="M716.1 259.53C706.59 259.53 697.18 267.93 691.28 275.24C691.38 273.24 691.68 271.24 691.88 269.23C692.08 266.33 692.48 262.53 692.18 259.33C692.08 258.33 691.68 256.42 689.98 256.42C687.68 256.42 685.27 259.03 683.87 261.43C681.87 264.93 681.87 269.93 681.77 271.54C681.07 279.64 680.67 285.85 680.57 291.75C680.47 297.86 680.67 303.66 681.07 311.17C681.17 313.57 682.07 323.27 686.27 323.88C688.88 324.18 692.88 320.07 692.28 317.67C690.68 310.76 690.08 303.46 690.08 296.15C690.08 292.15 690.28 288.25 690.48 284.25C692.28 281.34 694.78 277.84 696.58 276.14C700.18 272.64 702.29 270.04 708.19 270.04C711.19 270.04 712.19 272.64 711.89 275.24C711.29 280.74 707.09 285.15 703.09 287.35C697.88 290.35 692.28 290.75 692.28 293.05C692.38 295.45 694.98 296.45 696.48 296.45C699.58 296.45 701.89 294.65 704.39 293.05C712.59 287.95 722.4 279.44 722.4 269.13C722.4 264.73 721.7 259.53 716.1 259.53Z" />
			<path id="&lt;Path&gt;" class="shp0" d="M792.26 255.12C794.26 255.12 798.76 252.42 799.96 251.22C802.06 249.12 809.07 243.92 809.07 240.21C809.07 239.21 805.17 238.11 803.06 238.21C801.76 238.41 801.26 239.01 801.06 239.71C799.06 244.02 795.76 247.12 793.16 250.92C792.46 251.62 789.65 255.12 792.26 255.12Z" />
			<path id="&lt;Compound Path&gt;" fill-rule="evenodd" class="shp0" d="M1094.89 289.01C1089.8 292.77 1085 297.06 1075.83 296.14C1071.84 295.74 1070.02 293.15 1062.5 293.22C1057.87 293.25 1052.24 297.17 1045.69 297.21C1040.14 297.24 1035.52 293.27 1029 293.3C1023.95 293.32 1017.16 297.34 1011.73 297.36C1003.22 297.39 994.51 292.1 985.59 292.12C976.31 292.15 969.9 297.5 960.91 297.53C955.41 297.55 947.05 292.48 940.83 291.79C934.43 291.07 927.11 296.2 922.32 296.21C915.53 296.23 910.49 292.54 906.31 293.38C896.6 295.34 891.89 296.89 888.78 297.25C881.82 298.05 872.74 297.14 868.66 291.02C860.75 295.53 853.58 298.36 842.19 298.36C834.87 298.36 827.05 296.68 823.55 291.58C818.33 295.5 812.39 297.25 809.17 297.25C804.97 297.25 802.26 294.65 799.96 292.35C797.76 290.35 790.05 296.75 783.65 297.25C777.95 297.56 770.94 293.85 770.44 288.35C770.15 285.05 770.81 281.81 772.18 278.77C769 280.59 764.71 281.34 762.73 281.34C754.73 281.34 752.92 272.24 750.52 272.24C748.62 272.24 746.52 275.24 745.72 276.54C741.92 283.44 741.32 292.35 739.11 299.46C738.61 301.06 737.61 301.96 736.61 301.96C735.01 301.96 732.81 301.46 732.31 299.86C731.81 298.56 731.81 296.05 731.81 295.05C730.71 285.65 730.61 275.74 730.71 265.73C730.51 263.43 733.51 257.23 737.01 257.23C739.82 257.23 740.42 259.73 740.32 261.13C740.42 266.13 738.91 272.24 739.72 277.64C743.82 272.24 748.42 259.13 755.23 259.13C758.93 259.13 759.33 266.33 761.63 269.13C765.83 274.14 770.64 274.24 774.24 273.74C774.59 273.71 774.87 273.78 775.08 273.9C779.81 267.62 787.54 262.7 795.66 260.63C798.96 259.93 803.76 261.43 805.67 264.93C806.97 267.23 808.37 269.93 806.17 271.84C805.57 272.64 804.06 273.14 803.86 272.54C802.86 271.04 800.16 267.53 797.26 267.93C788.05 268.43 782.05 273.74 781.55 280.54C780.65 286.15 783.35 289.85 788.25 289.55C793.56 289.25 796.86 287.75 799.76 285.75C801.56 284.55 803.06 281.24 805.67 281.24C808.47 281.24 809.07 286.35 812.37 287.75C815.25 289.02 818.76 288.68 821.99 287.98C821.79 287.1 821.68 286.16 821.68 285.15C821.78 273.84 832.39 264.43 840.49 261.73C845.2 260.23 852.3 264.53 852.3 269.43C852.1 271.84 848.6 273.84 845.7 273.84C843.5 273.84 843.5 269.93 840.59 269.93C836.59 269.93 833.39 276.24 833.49 281.54C833.69 289.25 841.69 291.45 850.8 291.25C857.95 291.04 862.26 289.84 867.05 287.43C866.7 286.15 866.51 284.73 866.51 283.14C866.61 273.64 881.52 260.53 891.33 260.03C897.14 259.73 901.24 262.53 900.64 267.93C899.44 276.14 886.33 281.24 879.02 284.25C880.65 288.77 883.14 290.62 891.29 290.16C893.91 290.01 899.4 287.74 906.66 286.93C910.56 286.5 915.6 289.61 922.39 289.61C927.29 289.61 934.58 284.6 941.26 285.36C947.13 286.03 955.11 291.04 960.33 291.04C969.35 291.04 975.86 285.71 985.25 285.71C993.98 285.7 1002.53 291.02 1010.92 291.02C1016.47 291.01 1023.38 287.02 1028.54 287.02C1035.01 287.01 1039.59 291 1045.11 291C1051.77 290.99 1057.48 287.1 1062.15 287.1C1069.7 287.09 1076.75 291.08 1079.22 291.01C1084.32 290.86 1089.92 286.75 1095.52 284.25C1096.42 283.74 1098.06 282.89 1098.52 284.25C1099.01 285.65 1095.49 288.41 1094.89 289.01ZM878.42 278.54C884.03 277.84 890.83 275.24 890.83 269.53C890.83 268.03 890.13 266.73 888.43 266.93C884.93 267.23 879.42 272.64 878.72 275.74C878.52 276.74 878.42 277.64 878.42 278.54Z" />
		</g>
	</g>
</svg>