<?xml version="1.0" encoding="UTF-8" standalone="no"?>
<svg
   xmlns:dc="http://purl.org/dc/elements/1.1/"
   xmlns:cc="http://creativecommons.org/ns#"
   xmlns:rdf="http://www.w3.org/1999/02/22-rdf-syntax-ns#"
   xmlns:svg="http://www.w3.org/2000/svg"
   xmlns="http://www.w3.org/2000/svg"
   xmlns:sodipodi="http://sodipodi.sourceforge.net/DTD/sodipodi-0.dtd"
   xmlns:inkscape="http://www.inkscape.org/namespaces/inkscape"
   version="1.1"
   id="svg2"
   xml:space="preserve"
   width="2000"
   height="800"
   viewBox="0 0 2000 800"
   sodipodi:docname="ZORAK_logo_humrova.ai"><metadata
     id="metadata8"><rdf:RDF><cc:Work
         rdf:about=""><dc:format>image/svg+xml</dc:format><dc:type
           rdf:resource="http://purl.org/dc/dcmitype/StillImage" /></cc:Work></rdf:RDF></metadata><defs
     id="defs6"><clipPath
       clipPathUnits="userSpaceOnUse"
       id="clipPath18"><path
         d="M 0,600 H 1500 V 0 H 0 Z"
         id="path16" /></clipPath></defs><sodipodi:namedview
     pagecolor="#ffffff"
     bordercolor="#666666"
     borderopacity="1"
     objecttolerance="10"
     gridtolerance="10"
     guidetolerance="10"
     inkscape:pageopacity="0"
     inkscape:pageshadow="2"
     inkscape:window-width="640"
     inkscape:window-height="480"
     id="namedview4" /><g
     id="g10"
     inkscape:groupmode="layer"
     inkscape:label="ZORAK_logo_humrova"
     transform="matrix(1.3333333,0,0,-1.3333333,0,800)"><g
       id="g12"><g
         id="g14"
         clip-path="url(#clipPath18)"><g
           id="g20"
           transform="translate(764.3691,265.4541)"><path
             d="m 0,0 c 27.081,11.116 42.471,32.779 42.471,62.706 0,44.749 -35.058,71.826 -92.064,71.826 h -91.208 v -31.857 c 7.044,-0.893 13.551,-1.849 18.528,-2.623 5.544,-0.862 9.616,-5.376 9.631,-10.681 l 0.148,-50.137 c 0.015,-5.326 -4.06,-9.873 -9.624,-10.741 -5.016,-0.782 -11.582,-1.75 -18.683,-2.652 v -90.826 h 62.134 v 56.433 h 16.816 l 41.332,-56.433 h 68.406 z"
             style="fill:#e1554b;fill-opacity:1;fill-rule:nonzero;stroke:none"
             id="path22" /></g><g
           id="g24"
           transform="translate(215.0234,200.0137)"><path
             d="m 0,0 v 38.479 l 95.77,109.45 H 0 v 51.589 H 180.423 V 161.04 L 84.938,51.59 h 95.485 V 0 Z"
             style="fill:#e1554b;fill-opacity:1;fill-rule:nonzero;stroke:none"
             id="path26" /></g><g
           id="g28"
           transform="translate(395.8315,299.8813)"><path
             d="m 0,0 c 0,57.784 44.365,99.96 105.709,99.96 61.347,0 105.712,-41.901 105.712,-99.413 0,-57.785 -44.641,-99.96 -105.984,-99.96 C 44.365,-99.413 0,-57.512 0,0"
             style="fill:#e1554b;fill-opacity:1;fill-rule:nonzero;stroke:none"
             id="path30" /></g><g
           id="g32"
           transform="translate(921.7217,273.1338)"><path
             d="M 0,0 H 48.443 L 24.507,63.264 Z m 76.086,-72.665 -11.401,30.206 h -80.93 l -11.682,-30.206 h -64.405 l 85.775,199.063 h 62.122 l 85.777,-199.063 z"
             style="fill:#e1554b;fill-opacity:1;fill-rule:nonzero;stroke:none"
             id="path34" /></g><g
           id="g36"
           transform="translate(1220.1582,200.4687)"><path
             d="M 0,0 -47.49,70.81 -74.506,40.096 V 0 h -61.996 v 199.063 h 61.996 v -85.882 l 66.544,85.882 h 72.78 L -8.886,112.655 64.818,0.001 Z"
             style="fill:#e1554b;fill-opacity:1;fill-rule:nonzero;stroke:none"
             id="path38" /></g><g
           id="g40"
           transform="translate(443.6074,285.6367)"><path
             d="m 0,0 38.54,-17.46 c 0.602,-0.294 1.312,-0.279 1.895,0.038 l 10.005,5.448 c 1.564,0.687 1.665,2.81 0.175,3.664 -1.852,1.062 -3.768,2.09 -5.742,3.078 C 26.362,4.027 10.443,5.56 0.167,2.036 -0.762,1.717 -0.862,0.477 0,0"
             style="fill:#ffffff;fill-opacity:1;fill-rule:nonzero;stroke:none"
             id="path42" /></g><g
           id="g44"
           transform="translate(503.9194,274.2422)"><path
             d="M 0,0 C -0.82,0.126 -1.643,-0.234 -2.102,-0.908 L -13.218,-17.24 c -0.693,-1.019 -1.84,-1.661 -3.093,-1.734 l -51.103,-2.956 c -0.829,-0.049 -1.426,-0.786 -1.297,-1.582 1.892,-11.662 24.053,-20.565 50.996,-20.149 28.086,0.433 50.732,10.829 50.581,23.218 C 32.75,-10.89 19.113,-2.939 0,0"
             style="fill:#ffffff;fill-opacity:1;fill-rule:nonzero;stroke:none"
             id="path46" /></g><g
           id="g48"
           transform="translate(574.6372,353.7036)"><path
             d="m 0,0 c -5.879,8.509 -16.038,12.983 -26.319,11.863 -8.214,-0.895 -16.162,-2.222 -23.692,-3.847 -0.742,-0.16 -1.05,-1.077 -0.535,-1.635 2.192,-2.375 3.374,-5.696 2.846,-9.287 -0.727,-4.949 -4.808,-8.885 -9.779,-9.45 -6.786,-0.772 -12.536,4.515 -12.536,11.145 0,0.861 0.098,1.699 0.284,2.503 0.171,0.741 -0.557,1.38 -1.281,1.15 -5.828,-1.845 -11.217,-3.817 -16.039,-5.822 -11.808,-4.911 -20.29,-8.388 -23.891,-14.783 -1.409,-2.502 -5.352,-4.488 -5.352,-7.141 0,-2.836 4.05,-4.995 5.653,-7.657 3.736,-6.198 12.083,-9.495 23.59,-14.276 5.067,-2.105 10.763,-4.17 16.934,-6.095 0.721,-0.225 1.424,0.403 1.278,1.144 -0.311,1.579 -0.291,3.274 0.18,5.037 1.134,4.232 4.716,7.502 9.046,8.169 6.988,1.077 13.006,-4.299 13.006,-11.082 0,-2.756 -0.998,-5.275 -2.649,-7.227 -0.483,-0.571 -0.171,-1.456 0.561,-1.61 13.993,-2.935 29.37,-4.839 45.192,-4.839 3.025,0 6.344,0.125 9.817,0.342 5.306,0.33 9.481,4.721 9.525,10.037 0.003,0.284 0.003,0.568 0.003,0.853 C 15.842,-32.573 10.123,-14.651 0,0"
             style="fill:#ffffff;fill-opacity:1;fill-rule:nonzero;stroke:none"
             id="path50" /></g><g
           id="g52"
           transform="translate(684.6431,354.5649)"><path
             d="m 0,0 v -51.679 c 0,-1.94 -1.573,-3.513 -3.513,-3.513 h -10.99 c -1.94,0 -3.514,1.573 -3.514,3.513 V 0 c 0,1.94 1.574,3.514 3.514,3.514 h 10.99 C -1.573,3.514 0,1.94 0,0"
             style="fill:#ffffff;fill-opacity:1;fill-rule:nonzero;stroke:none"
             id="path54" /></g><g
           id="g56"
           transform="translate(699.6582,356.2651)"><path
             d="m 0,0 v -53.326 c 0,-8.521 6.909,-15.43 15.43,-15.43 8.522,0 15.43,6.909 15.43,15.43 0,2.647 -0.667,5.138 -1.842,7.316 6.082,4.279 10.059,11.346 10.059,19.347 0,8.001 -3.977,15.069 -10.059,19.348 1.175,2.177 1.842,4.668 1.842,7.315 0,8.522 -6.908,15.43 -15.43,15.43 C 6.909,15.43 0,8.522 0,0"
             style="fill:#ffffff;fill-opacity:1;fill-rule:nonzero;stroke:none"
             id="path58" /></g><g
           id="g60"
           transform="translate(642.0962,365.5059)"><path
             d="m 0,0 c -4.978,0.774 -11.484,1.73 -18.528,2.624 v -76.835 c 7.101,0.902 13.667,1.87 18.683,2.652 5.564,0.869 9.639,5.415 9.624,10.741 L 9.631,-10.681 C 9.616,-5.375 5.544,-0.861 0,0"
             style="fill:#ffffff;fill-opacity:1;fill-rule:nonzero;stroke:none"
             id="path62" /></g></g></g></g></svg>
