<svg version="1.2" baseProfile="tiny-ps" xmlns="http://www.w3.org/2000/svg" viewBox="0 0 1088 212" width="1088" height="212">
	<title>ZORAK_logo_humrova-ai</title>
	<style>
		tspan { white-space:pre }
		.shp0 { fill: #e1554b } 
		.shp1 { fill: #ffffff } 
	</style>
	<g id="Vrstva 1">
		<path id="&lt;Path&gt;" class="shp0" d="M562.37 140.55C589.45 129.43 604.84 107.77 604.84 77.84C604.84 33.09 569.78 6.01 512.78 6.01L421.57 6.01L421.57 37.87C428.61 38.76 435.12 39.72 440.1 40.49C445.64 41.36 449.71 45.87 449.73 51.18L449.87 101.31C449.89 106.64 445.82 111.18 440.25 112.05C435.23 112.84 428.67 113.8 421.57 114.71L421.57 205.53L483.7 205.53L483.7 149.1L500.52 149.1L541.85 205.53L610.26 205.53L562.37 140.55Z" />
		<path id="&lt;Compound Path&gt;" class="shp0" d="M13.02 205.99L13.02 167.51L108.79 58.06L13.02 58.06L13.02 6.47L193.45 6.47L193.45 44.95L97.96 154.4L193.45 154.4L193.45 205.99L13.02 205.99Z" />
		<path id="&lt;Compound Path&gt;" class="shp0" d="M193.83 106.12C193.83 48.33 238.2 6.16 299.54 6.16C360.89 6.16 405.25 48.06 405.25 105.57C405.25 163.36 360.61 205.53 299.27 205.53C238.2 205.53 193.83 163.63 193.83 106.12Z" />
		<path id="&lt;Compound Path&gt;" fill-rule="evenodd" class="shp0" d="M795.81 205.53L784.41 175.33L703.48 175.33L691.8 205.53L627.39 205.53L713.17 6.47L775.29 6.47L861.06 205.53L795.81 205.53ZM719.72 132.87L768.17 132.87L744.23 69.6L719.72 132.87Z" />
		<path id="&lt;Compound Path&gt;" class="shp0" d="M1018.16 205.53L970.67 134.72L943.65 165.44L943.65 205.53L881.66 205.53L881.66 6.47L943.65 6.47L943.65 92.35L1010.2 6.47L1082.98 6.47L1009.27 92.88L1082.98 205.53L1018.16 205.53Z" />
		<g id="&lt;Group&gt;">
			<path id="&lt;Path&gt;" class="shp1" d="M241.61 120.36L280.15 137.82C280.75 138.12 281.46 138.1 282.04 137.79L292.05 132.34C293.61 131.65 293.71 129.53 292.22 128.67C290.37 127.61 288.45 126.58 286.48 125.6C267.97 116.34 252.05 114.8 241.77 118.33C240.85 118.65 240.75 119.89 241.61 120.36Z" />
			<path id="&lt;Path&gt;" class="shp1" d="M301.92 131.76C301.1 131.63 300.28 131.99 299.82 132.67L288.7 149C288.01 150.02 286.86 150.66 285.61 150.73L234.51 153.69C233.68 153.74 233.08 154.47 233.21 155.27C235.1 166.93 257.26 175.83 284.2 175.42C312.29 174.99 334.94 164.59 334.79 152.2C334.67 142.65 321.03 134.7 301.92 131.76Z" />
			<path id="&lt;Path&gt;" class="shp1" d="M372.64 52.3C366.76 43.79 356.6 39.31 346.32 40.43C338.1 41.33 330.16 42.66 322.63 44.28C321.88 44.44 321.58 45.36 322.09 45.91C324.28 48.29 325.47 51.61 324.94 55.2C324.21 60.15 320.13 64.09 315.16 64.65C308.37 65.42 302.62 60.14 302.62 53.51C302.62 52.65 302.72 51.81 302.91 51C303.08 50.26 302.35 49.62 301.63 49.85C295.8 51.7 290.41 53.67 285.59 55.68C273.78 60.59 265.3 64.06 261.7 70.46C260.29 72.96 256.34 74.95 256.34 77.6C256.34 80.44 260.39 82.6 262 85.26C265.73 91.46 274.08 94.75 285.59 99.53C290.65 101.64 296.35 103.7 302.52 105.63C303.24 105.85 303.94 105.23 303.8 104.48C303.49 102.91 303.51 101.21 303.98 99.45C305.11 95.22 308.69 91.95 313.02 91.28C320.01 90.2 326.03 95.58 326.03 102.36C326.03 105.12 325.03 107.64 323.38 109.59C322.9 110.16 323.21 111.04 323.94 111.2C337.93 114.13 353.31 116.04 369.13 116.04C372.16 116.04 375.48 115.91 378.95 115.69C384.26 115.36 388.43 110.97 388.48 105.66C388.48 105.37 388.48 105.09 388.48 104.8C388.48 84.87 382.76 66.95 372.64 52.3Z" />
			<path id="&lt;Path&gt;" class="shp1" d="M482.64 51.43L482.64 103.11C482.64 105.05 481.07 106.63 479.13 106.63L468.14 106.63C466.2 106.63 464.63 105.05 464.63 103.11L464.63 51.43C464.63 49.49 466.2 47.92 468.14 47.92L479.13 47.92C481.07 47.92 482.64 49.49 482.64 51.43Z" />
			<path id="&lt;Path&gt;" class="shp1" d="M497.66 49.73C497.66 52.38 497.66 100.41 497.66 103.06C497.66 111.58 504.57 118.49 513.09 118.49C521.61 118.49 528.52 111.58 528.52 103.06C528.52 100.41 527.85 97.92 526.68 95.75C532.76 91.47 536.74 84.4 536.74 76.4C536.74 68.4 532.76 61.33 526.68 57.05C527.85 54.87 528.52 52.38 528.52 49.73C528.52 41.21 521.61 34.3 513.09 34.3C504.57 34.3 497.66 41.21 497.66 49.73Z" />
			<path id="&lt;Path&gt;" class="shp1" d="M440.1 40.49C435.12 39.72 428.61 38.76 421.57 37.87L421.57 114.71C428.67 113.8 435.23 112.84 440.25 112.05C445.82 111.18 449.89 106.64 449.87 101.31L449.73 51.18C449.71 45.87 445.64 41.36 440.1 40.49Z" />
		</g>
	</g>
</svg>