<?xml version="1.0" encoding="UTF-8" standalone="no"?>
<!DOCTYPE svg PUBLIC "-//W3C//DTD SVG 1.1//EN" "http://www.w3.org/Graphics/SVG/1.1/DTD/svg11.dtd">
<svg xmlns="http://www.w3.org/2000/svg" xmlns:xlink="http://www.w3.org/1999/xlink" version="1.1" width="1500pt" height="600pt" viewBox="0 0 1500 600">
<g enable-background="new">
<g id="Layer-1" data-name="Vrstva 1">
<clipPath id="cp0">
<path transform="matrix(1,0,0,-1,0,600)" d="M 0 600 L 1500 600 L 1500 0 L 0 0 Z "/>
</clipPath>
<g clip-path="url(#cp0)">
<path transform="matrix(1,0,0,-1,764.3691,279.6411)" d="M 0 0 C 27.081 11.116 42.471 32.779 42.471 62.706 C 42.471 107.455 7.413 134.532 -49.593 134.532 L -140.801 134.532 L -140.801 102.675 C -133.757 101.782 -127.25 100.825 -122.273 100.051 C -116.729 99.19 -112.657 94.676 -112.642 89.371 L -112.494 39.233 C -112.479 33.908 -116.554 29.361 -122.118 28.493 C -127.134 27.71 -133.7 26.743 -140.801 25.84 L -140.801 -64.986 L -78.667 -64.986 L -78.667 -8.552 L -61.851 -8.552 L -20.519 -64.986 L 47.887 -64.986 Z " fill="#191836"/>
<path transform="matrix(1,0,0,-1,215.0234,345.082)" d="M 0 0 L 0 38.479 L 95.77 147.929 L 0 147.929 L 0 199.518 L 180.423 199.518 L 180.423 161.04 L 84.938 51.59 L 180.423 51.59 L 180.423 0 Z " fill="#191836"/>
<path transform="matrix(1,0,0,-1,395.8315,245.21439)" d="M 0 0 C 0 57.784 44.365 99.96 105.709 99.96 C 167.056 99.96 211.421 58.059 211.421 .547 C 211.421 -57.237 166.78 -99.413 105.437 -99.413 C 44.365 -99.413 0 -57.511 0 0 " fill="#191836"/>
<path transform="matrix(1,0,0,-1,921.7217,271.9614)" d="M 0 0 L 48.443 0 L 24.507 63.264 Z M 76.086 -72.666 L 64.685 -42.459 L -16.245 -42.459 L -27.927 -72.666 L -92.332 -72.666 L -6.557 126.397 L 55.565 126.397 L 141.342 -72.666 Z " fill="#191836"/>
<path transform="matrix(1,0,0,-1,1220.1582,344.627)" d="M 0 0 L -47.49 70.81 L -74.506 40.096 L -74.506 0 L -136.502 0 L -136.502 199.063 L -74.506 199.063 L -74.506 113.182 L -7.962 199.063 L 64.818 199.063 L -8.886 112.656 L 64.818 .001 Z " fill="#191836"/>
<path transform="matrix(1,0,0,-1,443.6074,259.459)" d="M 0 0 L 38.54 -17.46 C 39.142 -17.753 39.852 -17.739 40.435 -17.422 L 50.44 -11.974 C 52.004 -11.287 52.105 -9.164 50.615 -8.31 C 48.763 -7.248 46.847 -6.22 44.873 -5.232 C 26.362 4.028 10.443 5.56 .167 2.036 C -.762 1.717 -.862 .477 0 0 " fill="#e1554b"/>
<path transform="matrix(1,0,0,-1,503.9194,270.853)" d="M 0 0 C -.82 .126 -1.643 -.234 -2.102 -.909 L -13.218 -17.24 C -13.911 -18.259 -15.058 -18.901 -16.311 -18.974 L -67.414 -21.93 C -68.243 -21.979 -68.84 -22.716 -68.711 -23.512 C -66.819 -35.174 -44.658 -44.077 -17.715 -43.662 C 10.371 -43.228 33.017 -32.833 32.866 -20.443 C 32.75 -10.89 19.113 -2.94 0 0 " fill="#e1554b"/>
<path transform="matrix(1,0,0,-1,574.6372,191.39209)" d="M 0 0 C -5.879 8.509 -16.038 12.983 -26.319 11.863 C -34.533 10.968 -42.481 9.641 -50.011 8.017 C -50.753 7.856 -51.061 6.94 -50.546 6.382 C -48.354 4.006 -47.172 .685 -47.7 -2.906 C -48.427 -7.855 -52.508 -11.791 -57.479 -12.356 C -64.265 -13.128 -70.015 -7.841 -70.015 -1.211 C -70.015 -.35 -69.917 .488 -69.731 1.292 C -69.56 2.033 -70.288 2.672 -71.012 2.443 C -76.84 .597 -82.229 -1.375 -87.051 -3.38 C -98.859 -8.291 -107.341 -11.767 -110.942 -18.163 C -112.351 -20.665 -116.294 -22.65 -116.294 -25.304 C -116.294 -28.14 -112.244 -30.299 -110.641 -32.961 C -106.905 -39.159 -98.558 -42.456 -87.051 -47.237 C -81.984 -49.342 -76.288 -51.407 -70.117 -53.332 C -69.396 -53.557 -68.693 -52.929 -68.839 -52.188 C -69.15 -50.609 -69.13 -48.914 -68.659 -47.151 C -67.525 -42.919 -63.943 -39.649 -59.613 -38.981 C -52.625 -37.904 -46.607 -43.281 -46.607 -50.064 C -46.607 -52.82 -47.605 -55.339 -49.256 -57.29 C -49.739 -57.861 -49.427 -58.747 -48.695 -58.9 C -34.702 -61.836 -19.325 -63.74 -3.503 -63.74 C -.478 -63.74 2.841 -63.614 6.314 -63.398 C 11.62 -63.068 15.795 -58.677 15.839 -53.361 C 15.842 -53.077 15.842 -52.793 15.842 -52.508 C 15.842 -32.572 10.123 -14.651 0 0 " fill="#e1554b"/>
<path transform="matrix(1,0,0,-1,684.6431,190.5303)" d="M 0 0 L 0 -51.679 C 0 -53.619 -1.573 -55.192 -3.513 -55.192 L -14.503 -55.192 C -16.443 -55.192 -18.017 -53.619 -18.017 -51.679 L -18.017 0 C -18.017 1.94 -16.443 3.513 -14.503 3.513 L -3.513 3.513 C -1.573 3.513 0 1.94 0 0 " fill="#e1554b"/>
<path transform="matrix(1,0,0,-1,699.6582,188.83011)" d="M 0 0 L 0 -53.326 C 0 -61.848 6.909 -68.756 15.43 -68.756 C 23.952 -68.756 30.86 -61.848 30.86 -53.326 C 30.86 -50.679 30.193 -48.188 29.018 -46.011 C 35.1 -41.731 39.077 -34.664 39.077 -26.663 C 39.077 -18.663 35.1 -11.595 29.018 -7.316 C 30.193 -5.139 30.86 -2.647 30.86 0 C 30.86 8.521 23.952 15.43 15.43 15.43 C 6.909 15.43 0 8.521 0 0 " fill="#e1554b"/>
<path transform="matrix(1,0,0,-1,642.0962,179.58982)" d="M 0 0 C -4.978 .774 -11.484 1.73 -18.528 2.624 L -18.528 -74.211 C -11.427 -73.309 -4.861 -72.341 .155 -71.559 C 5.719 -70.69 9.794 -66.144 9.779 -60.818 L 9.631 -10.681 C 9.616 -5.375 5.544 -.861 0 0 " fill="#e1554b"/>
<path transform="matrix(1,0,0,-1,639.8804,383.8223)" d="M 0 0 C .901 -1.201 2.202 -2.302 3.302 -2.102 C 5.304 -2.102 7.906 -.7 8.506 1.501 C 11.409 4.403 16.012 9.707 17.113 10.809 C 18.113 11.909 19.415 12.51 19.415 13.61 C 19.615 14.411 18.914 14.711 17.113 14.611 C 14.611 14.611 9.807 9.707 7.005 6.905 C 5.804 6.004 5.304 5.404 4.303 6.004 C 1.701 8.507 -3.502 13.01 -7.505 14.711 C -8.907 15.512 -10.708 15.512 -12.609 13.91 C -13.21 13.61 -12.709 12.71 -12.009 12.009 C -7.505 7.605 -4.203 4.604 0 0 " fill="#191836"/>
<path transform="matrix(1,0,0,-1,682.9248,385.9473)" d="M 0 0 C 2.102 0 3.803 2.401 3.803 4.402 C 3.903 7.405 .901 12.609 -2.902 12.609 C -5.504 12.609 -8.606 10.607 -8.606 8.306 C -8.606 4.803 -3.903 0 0 0 " fill="#191836"/>
<path transform="matrix(1,0,0,-1,729.5479,416.9473)" d="M 0 0 C 0 -4.402 -6.505 -5.203 -9.808 -5.203 C -12.009 -5.203 -21.944 -4.647 -21.216 -1.301 C -20.519 1.903 -12.861 13.214 -10.087 12.816 C -7.654 12.467 -6.264 10.014 -5.495 9.153 C -.722 3.812 .084 3.102 0 0 M -1.863 17.514 C -2.463 23.418 -.884 23.311 -1.685 29.215 C -1.885 31.116 -3.787 31.417 -5.388 30.516 C -8.891 28.515 -12.893 25.212 -14.595 22.21 C -20.199 11.902 -19.514 5.704 -28.321 -1.301 C -28.649 -1.574 -28.857 -1.936 -28.988 -2.349 C -29.066 -2.366 -29.138 -2.375 -29.222 -2.401 C -31.924 -3.302 -35.627 -4.803 -39.33 -4.803 C -47.936 -4.803 -50.638 4.003 -51.039 10.608 C -51.339 14.812 -48.618 20.419 -48.618 23.421 C -48.718 24.521 -49.818 25.623 -51.02 25.623 C -56.624 25.623 -60.445 15.912 -60.345 11.108 C -60.576 7.348 -60.596 2.955 -59.743 -1.033 C -64.896 -3.751 -69.277 -5.081 -76.858 -5.304 C -85.965 -5.504 -93.971 -3.302 -94.17 4.404 C -94.271 9.708 -91.068 16.013 -87.066 16.013 C -84.164 16.013 -84.164 12.109 -81.962 12.109 C -79.06 12.109 -75.557 14.111 -75.357 16.513 C -75.357 21.417 -82.462 25.72 -87.166 24.218 C -95.271 21.517 -105.879 12.109 -105.979 .802 C -105.979 -9.406 -95.271 -12.408 -85.464 -12.408 C -73.871 -12.408 -66.66 -9.482 -58.576 -4.832 C -56.649 -9.43 -52.937 -12.81 -46.035 -12.81 C -39.33 -12.81 -33.225 -9.807 -29.022 -5.904 C -28.975 -5.864 -28.922 -5.804 -28.872 -5.758 C -28.825 -5.974 -28.775 -6.189 -28.721 -6.404 C -28.321 -12.408 -18.814 -14.109 -13.81 -14.311 C -4.503 -14.511 11.508 -4.703 10.708 4.203 C 10.007 10.208 -1.162 11.81 -1.863 17.514 " fill="#191836"/>
<path transform="matrix(1,0,0,-1,803.7051,386.124)" d="M 0 0 C 2.001 0 6.505 2.702 7.705 3.903 C 9.807 6.005 16.812 11.209 16.812 14.911 C 16.812 15.912 12.909 17.013 10.808 16.913 C 9.507 16.713 9.006 16.112 8.806 15.411 C 6.805 11.108 3.502 8.006 .9 4.203 C .2 3.503 -2.603 0 0 0 " fill="#191836"/>
<path transform="matrix(1,0,0,-1,837.9297,417.84669)" d="M 0 0 C -4.103 -1.102 -9.807 -2.803 -14.11 -.901 C -17.412 .5 -18.013 5.604 -20.815 5.604 C -23.417 5.604 -24.918 2.301 -26.72 1.1 C -29.621 -.901 -32.924 -2.402 -38.229 -2.703 C -43.132 -3.003 -45.834 .7 -44.933 6.304 C -44.433 13.109 -38.428 18.413 -29.222 18.913 C -26.319 19.313 -23.617 15.811 -22.616 14.31 C -22.416 13.709 -20.915 14.21 -20.314 15.011 C -18.113 16.912 -19.514 19.613 -20.815 21.916 C -22.717 25.418 -27.52 26.919 -30.822 26.219 C -43.634 22.945 -55.479 12.595 -56.081 .964 C -61.425 -1.612 -66.409 -2.803 -70.052 -2.803 C -81.561 -2.803 -81.961 9.606 -81.86 16.611 C -81.86 17.512 -81.761 17.612 -81.461 19.613 C -77.157 20.214 -72.354 20.814 -68.451 21.715 C -64.048 22.616 -62.146 23.616 -61.245 25.618 C -60.245 27.82 -63.747 27.52 -65.148 27.319 C -70.452 27.119 -74.956 25.919 -80.96 25.919 C -80.359 31.623 -79.959 39.028 -79.959 41.13 C -79.959 42.631 -80.96 45.032 -82.361 44.532 C -87.064 42.831 -87.565 37.827 -88.065 35.525 L -89.367 26.219 L -91.468 25.919 C -94.17 25.618 -97.572 23.517 -97.672 20.614 C -97.672 18.413 -95.271 18.413 -93.569 18.413 C -92.969 18.413 -91.868 18.413 -90.267 18.613 C -90.167 7.205 -92.969 -12.81 -75.256 -12.81 C -67.61 -12.81 -60.101 -8.813 -55.433 -3.752 C -53.541 -7.982 -47.716 -10.666 -42.831 -10.408 C -36.427 -9.908 -28.721 -3.503 -26.52 -5.505 C -24.218 -7.807 -21.516 -10.408 -17.312 -10.408 C -13.31 -10.408 -5.104 -7.706 .701 -1.502 C 1.001 -1.102 .801 .1 0 0 " fill="#191836"/>
<path transform="matrix(1,0,0,-1,902.0967,390.52729)" d="M 0 0 C -9.507 0 -18.914 -8.406 -24.818 -15.712 C -24.719 -13.71 -24.418 -11.709 -24.218 -9.707 C -24.018 -6.805 -23.617 -3.002 -23.918 .2 C -24.018 1.201 -24.418 3.103 -26.119 3.103 C -28.421 3.103 -30.823 .501 -32.224 -1.901 C -34.226 -5.403 -34.226 -10.407 -34.325 -12.009 C -35.026 -20.114 -35.427 -26.319 -35.526 -32.224 C -35.626 -38.328 -35.427 -44.132 -35.026 -51.638 C -34.926 -54.04 -34.025 -63.747 -29.822 -64.348 C -27.221 -64.647 -23.218 -60.544 -23.817 -58.143 C -25.419 -51.237 -26.02 -43.932 -26.02 -36.627 C -26.02 -32.624 -25.819 -28.721 -25.619 -24.718 C -23.817 -21.815 -21.316 -18.313 -19.515 -16.612 C -15.912 -13.109 -13.811 -10.508 -7.906 -10.508 C -4.903 -10.508 -3.903 -13.109 -4.203 -15.712 C -4.804 -21.216 -9.007 -25.618 -13.01 -27.82 C -18.214 -30.822 -23.817 -31.223 -23.817 -33.525 C -23.718 -35.927 -21.115 -36.927 -19.614 -36.927 C -16.513 -36.927 -14.211 -35.126 -11.709 -33.525 C -3.503 -28.421 6.305 -19.914 6.305 -9.607 C 6.305 -5.203 5.604 0 0 0 " fill="#191836"/>
<path transform="matrix(1,0,0,-1,978.2559,386.124)" d="M 0 0 C 2.002 0 6.505 2.702 7.706 3.903 C 9.808 6.005 16.812 11.209 16.812 14.911 C 16.812 15.912 12.909 17.013 10.808 16.913 C 9.507 16.713 9.007 16.112 8.807 15.411 C 6.805 11.108 3.503 8.006 .9 4.203 C .2 3.503 -2.602 0 0 0 " fill="#191836"/>
<path transform="matrix(1,0,0,-1,1064.7217,406.73933)" d="M 0 0 C .7 3.103 6.205 8.506 9.707 8.807 C 11.408 9.007 12.108 7.706 12.108 6.205 C 12.108 .5 5.304 -2.102 -.3 -2.802 C -.3 -1.901 -.2 -1.001 0 0 M 219.801 -8.506 C 219.334 -7.155 217.699 -8.006 216.799 -8.506 C 211.194 -11.008 205.604 -15.125 200.495 -15.271 C 198.033 -15.342 190.98 -11.351 183.428 -11.36 C 178.755 -11.365 173.044 -15.252 166.39 -15.257 C 160.87 -15.261 156.287 -11.272 149.814 -11.276 C 144.656 -11.279 137.748 -15.274 132.197 -15.277 C 123.813 -15.282 115.263 -9.965 106.523 -9.969 C 97.134 -9.973 90.632 -15.298 81.61 -15.301 C 76.386 -15.303 68.41 -10.288 62.537 -9.621 C 55.863 -8.863 48.573 -13.869 43.672 -13.87 C 36.88 -13.873 31.841 -10.763 27.938 -11.194 C 20.676 -11.997 15.186 -14.269 12.572 -14.419 C 4.42 -14.885 1.93 -13.034 .3 -8.506 C 7.605 -5.504 20.715 -.4 21.916 7.806 C 22.517 13.21 18.414 16.012 12.609 15.712 C 2.802 15.212 -12.109 2.102 -12.209 -7.405 C -12.209 -8.991 -12.018 -10.411 -11.672 -11.687 C -16.464 -14.104 -20.769 -15.301 -27.921 -15.512 C -37.027 -15.712 -45.034 -13.51 -45.233 -5.804 C -45.334 -.5 -42.132 5.805 -38.129 5.805 C -35.227 5.805 -35.227 1.901 -33.025 1.901 C -30.123 1.901 -26.62 3.903 -26.42 6.305 C -26.42 11.209 -33.525 15.512 -38.229 14.01 C -46.335 11.309 -56.942 1.901 -57.043 -9.406 C -57.043 -10.424 -56.932 -11.365 -56.731 -12.243 C -59.966 -12.938 -63.472 -13.281 -66.351 -12.009 C -69.653 -10.607 -70.254 -5.504 -73.056 -5.504 C -75.658 -5.504 -77.159 -8.807 -78.96 -10.008 C -81.862 -12.009 -85.165 -13.51 -90.469 -13.811 C -95.372 -14.11 -98.074 -10.407 -97.174 -4.804 C -96.674 2.002 -90.669 7.306 -81.462 7.806 C -78.56 8.206 -75.857 4.703 -74.857 3.202 C -74.657 2.602 -73.156 3.103 -72.556 3.903 C -70.354 5.805 -71.755 8.506 -73.056 10.809 C -74.957 14.311 -79.761 15.812 -83.063 15.111 C -91.182 13.037 -98.913 8.12 -103.642 1.836 C -103.855 1.96 -104.132 2.024 -104.481 2.002 C -108.084 1.501 -112.888 1.602 -117.09 6.604 C -119.392 9.407 -119.792 16.612 -123.495 16.612 C -130.3 16.612 -134.903 3.503 -139.007 -1.901 C -139.808 3.503 -138.306 9.607 -138.406 14.611 C -138.306 16.012 -138.906 18.514 -141.709 18.514 C -145.211 18.514 -148.214 12.309 -148.013 10.008 C -148.113 0 -148.013 -9.907 -146.912 -19.314 C -146.912 -20.314 -146.912 -22.817 -146.412 -24.117 C -145.911 -25.719 -143.71 -26.22 -142.108 -26.22 C -141.108 -26.22 -140.107 -25.318 -139.606 -23.718 C -137.405 -16.612 -136.805 -7.706 -133.002 -.801 C -132.201 .5 -130.1 3.503 -128.198 3.503 C -125.797 3.503 -123.995 -5.604 -115.989 -5.604 C -114.011 -5.604 -109.72 -4.849 -106.544 -3.035 C -107.91 -6.073 -108.57 -9.307 -108.282 -12.609 C -107.781 -18.113 -100.776 -21.816 -95.072 -21.516 C -88.667 -21.016 -80.962 -14.61 -78.76 -16.612 C -76.458 -18.914 -73.757 -21.516 -69.553 -21.516 C -66.332 -21.516 -60.39 -19.762 -55.167 -15.845 C -51.672 -20.941 -43.85 -22.616 -36.527 -22.616 C -25.138 -22.616 -17.977 -19.79 -10.063 -15.281 C -5.986 -21.401 3.097 -22.314 10.059 -21.511 C 13.173 -21.15 17.877 -19.604 27.586 -17.643 C 31.764 -16.8 36.809 -20.488 43.598 -20.47 C 48.391 -20.456 55.705 -15.333 62.112 -16.046 C 68.325 -16.737 76.685 -21.806 82.19 -21.79 C 91.179 -21.764 97.593 -16.415 106.871 -16.386 C 115.789 -16.357 124.496 -21.648 133.009 -21.616 C 138.441 -21.596 145.231 -17.582 150.278 -17.561 C 156.8 -17.533 161.421 -21.497 166.97 -21.468 C 173.519 -21.433 179.144 -17.515 183.775 -17.477 C 191.303 -17.415 193.118 -19.999 197.105 -20.4 C 206.282 -21.325 211.08 -17.032 216.172 -13.272 C 216.772 -12.672 220.286 -9.911 219.801 -8.506 " fill="#191836"/>
</g>
</g>
</g>
</svg>
