<svg version="1.2" baseProfile="tiny-ps" xmlns="http://www.w3.org/2000/svg" viewBox="0 0 1288 314" width="1288" height="314">
	<title>ZORRAK_cista_prace_logo_humrova+modra_02-ai</title>
	<style>
		tspan { white-space:pre }
		.shp0 { fill: #191836 } 
		.shp1 { fill: #e1554b } 
	</style>
	<g id="Vrstva 1">
		<g id="&lt;Group&gt;">
			<g id="&lt;Group&gt;">
				<path id="&lt;Path&gt;" class="shp0" d="M640.17 235.87C641.07 237.07 642.37 238.17 643.47 237.97C645.47 237.97 648.07 236.57 648.68 234.37C651.58 231.47 656.18 226.16 657.28 225.06C658.28 223.96 659.58 223.36 659.58 222.26C659.78 221.46 659.08 221.16 657.28 221.26C654.78 221.26 649.98 226.16 647.17 228.97C645.97 229.87 645.47 230.47 644.47 229.87C641.87 227.36 636.67 222.86 632.66 221.16C631.26 220.36 629.46 220.36 627.56 221.96C626.96 222.26 627.46 223.16 628.16 223.86C632.66 228.27 635.97 231.27 640.17 235.87Z" />
				<path id="&lt;Path&gt;" class="shp0" d="M683.21 238C685.31 238 687.02 235.59 687.02 233.59C687.12 230.59 684.11 225.39 680.31 225.39C677.71 225.39 674.61 227.39 674.61 229.69C674.61 233.19 679.31 238 683.21 238Z" />
				<path id="&lt;Compound Path&gt;" fill-rule="evenodd" class="shp0" d="M740.54 264.79C741.34 273.7 725.33 283.51 716.03 283.31C711.02 283.11 701.52 281.4 701.12 275.4C701.06 275.19 701.01 274.97 700.96 274.75C700.91 274.8 700.86 274.86 700.81 274.9C696.61 278.8 690.51 281.81 683.8 281.81C676.9 281.81 673.19 278.43 671.26 273.83C663.18 278.48 655.97 281.4 644.37 281.4C634.56 281.4 623.86 278.4 623.86 268.19C623.96 256.89 634.56 247.48 642.67 244.78C647.37 243.28 654.48 247.58 654.48 252.48C654.28 254.88 650.78 256.89 647.87 256.89C645.67 256.89 645.67 252.98 642.77 252.98C638.77 252.98 635.57 259.29 635.67 264.59C635.87 272.3 643.87 274.5 652.98 274.3C660.56 274.08 664.94 272.75 670.09 270.03C669.24 266.04 669.26 261.65 669.49 257.89C669.39 253.08 673.21 243.37 678.82 243.37C680.02 243.37 681.12 244.47 681.22 245.58C681.22 248.58 678.5 254.18 678.8 258.39C679.2 264.99 681.9 273.8 690.51 273.8C694.21 273.8 697.91 272.3 700.61 271.4C700.7 271.37 700.77 271.36 700.85 271.34C700.98 270.93 701.19 270.57 701.52 270.3C710.32 263.29 709.64 257.09 715.24 246.79C716.94 243.78 720.95 240.48 724.45 238.48C726.05 237.58 727.95 237.88 728.15 239.78C728.95 245.69 727.37 245.58 727.97 251.48C728.67 257.19 739.84 258.79 740.54 264.79ZM724.34 259.84C723.57 258.98 722.18 256.53 719.75 256.18C716.98 255.78 709.32 267.09 708.62 270.3C707.89 273.64 717.83 274.2 720.03 274.2C723.33 274.2 729.84 273.4 729.84 269C729.92 265.89 729.11 265.18 724.34 259.84Z" />
				<path id="&lt;Path&gt;" class="shp0" d="M803.99 238.17C805.99 238.17 810.5 235.47 811.7 234.27C813.8 232.17 820.81 226.96 820.81 223.26C820.81 222.26 816.9 221.16 814.8 221.26C813.5 221.46 813 222.06 812.8 222.76C810.8 227.06 807.5 230.17 804.89 233.97C804.19 234.67 801.39 238.17 803.99 238.17Z" />
				<path id="&lt;Path&gt;" class="shp0" d="M838.22 269.9C834.12 271 828.41 272.7 824.11 270.8C820.81 269.4 820.21 264.29 817.4 264.29C814.8 264.29 813.3 267.59 811.5 268.8C808.6 270.8 805.29 272.3 799.99 272.6C795.09 272.9 792.38 269.2 793.29 263.59C793.79 256.79 799.79 251.48 809 250.98C811.9 250.58 814.6 254.08 815.6 255.59C815.8 256.19 817.3 255.69 817.9 254.88C820.11 252.98 818.7 250.28 817.4 247.98C815.5 244.48 810.7 242.98 807.4 243.68C794.58 246.95 782.74 257.3 782.14 268.93C776.79 271.51 771.81 272.7 768.17 272.7C756.66 272.7 756.26 260.29 756.36 253.28C756.36 252.38 756.46 252.28 756.76 250.28C761.06 249.68 765.86 249.08 769.77 248.18C774.17 247.28 776.07 246.28 776.97 244.28C777.97 242.08 774.47 242.38 773.07 242.58C767.77 242.78 763.26 243.98 757.26 243.98C757.86 238.27 758.26 230.87 758.26 228.77C758.26 227.26 757.26 224.86 755.86 225.36C751.15 227.06 750.65 232.07 750.15 234.37L748.85 243.68L746.75 243.98C744.05 244.28 740.65 246.38 740.55 249.28C740.55 251.48 742.95 251.48 744.65 251.48C745.25 251.48 746.35 251.48 747.95 251.28C748.05 262.69 745.25 282.71 762.96 282.71C770.61 282.71 778.12 278.71 782.79 273.65C784.68 277.88 790.5 280.56 795.39 280.3C801.79 279.8 809.5 273.4 811.7 275.4C814 277.7 816.7 280.3 820.91 280.3C824.91 280.3 833.12 277.6 838.92 271.4C839.22 271 839.02 269.8 838.22 269.9Z" />
				<path id="&lt;Path&gt;" class="shp0" d="M902.39 242.58C892.88 242.58 883.47 250.98 877.57 258.29C877.67 256.29 877.97 254.28 878.17 252.28C878.37 249.38 878.77 245.58 878.47 242.38C878.37 241.37 877.97 239.47 876.27 239.47C873.96 239.47 871.56 242.08 870.16 244.48C868.16 247.98 868.16 252.98 868.06 254.58C867.36 262.69 866.96 268.9 866.86 274.8C866.76 280.9 866.96 286.71 867.36 294.21C867.46 296.62 868.36 306.32 872.56 306.92C875.17 307.22 879.17 303.12 878.57 300.72C876.97 293.81 876.37 286.51 876.37 279.2C876.37 275.2 876.57 271.3 876.77 267.29C878.57 264.39 881.07 260.89 882.87 259.19C886.47 255.69 888.57 253.08 894.48 253.08C897.48 253.08 898.48 255.69 898.18 258.29C897.58 263.79 893.38 268.19 889.38 270.4C884.17 273.4 878.57 273.8 878.57 276.1C878.67 278.5 881.27 279.5 882.77 279.5C885.87 279.5 888.17 277.7 890.68 276.1C898.88 271 908.69 262.49 908.69 252.18C908.69 247.78 907.99 242.58 902.39 242.58Z" />
				<path id="&lt;Path&gt;" class="shp0" d="M978.54 238.17C980.55 238.17 985.05 235.47 986.25 234.27C988.35 232.17 995.36 226.96 995.36 223.26C995.36 222.26 991.45 221.16 989.35 221.26C988.05 221.46 987.55 222.06 987.35 222.76C985.35 227.06 982.05 230.17 979.45 233.97C978.74 234.67 975.94 238.17 978.54 238.17Z" />
				<path id="&lt;Compound Path&gt;" fill-rule="evenodd" class="shp0" d="M1281.18 272.06C1276.09 275.82 1271.29 280.11 1262.12 279.19C1258.13 278.79 1256.31 276.2 1248.79 276.26C1244.15 276.3 1238.53 280.22 1231.98 280.26C1226.43 280.29 1221.81 276.32 1215.29 276.35C1210.24 276.37 1203.45 280.38 1198.02 280.4C1189.51 280.44 1180.8 275.14 1171.88 275.17C1162.6 275.2 1156.19 280.55 1147.2 280.58C1141.7 280.59 1133.34 275.53 1127.12 274.83C1120.72 274.12 1113.4 279.24 1108.61 279.26C1101.82 279.28 1096.77 275.59 1092.6 276.43C1082.89 278.39 1078.18 279.94 1075.07 280.3C1068.11 281.1 1059.02 280.19 1054.95 274.07C1047.03 278.58 1039.87 281.4 1028.48 281.4C1021.16 281.4 1013.34 279.73 1009.84 274.63C1004.62 278.55 998.68 280.3 995.46 280.3C991.25 280.3 988.55 277.7 986.25 275.4C984.05 273.4 976.34 279.8 969.94 280.3C964.23 280.6 957.23 276.9 956.73 271.4C956.44 268.09 957.1 264.86 958.47 261.82C955.29 263.64 951 264.39 949.02 264.39C941.02 264.39 939.21 255.29 936.81 255.29C934.91 255.29 932.81 258.29 932.01 259.59C928.21 266.49 927.61 275.4 925.4 282.51C924.9 284.11 923.9 285.01 922.9 285.01C921.3 285.01 919.1 284.51 918.6 282.91C918.1 281.6 918.1 279.1 918.1 278.1C917 268.69 916.9 258.79 917 248.78C916.8 246.48 919.8 240.27 923.3 240.27C926.1 240.27 926.7 242.78 926.6 244.18C926.7 249.18 925.2 255.29 926 260.69C930.11 255.29 934.71 242.18 941.52 242.18C945.22 242.18 945.62 249.38 947.92 252.18C952.12 257.19 956.93 257.29 960.53 256.79C960.88 256.76 961.15 256.83 961.37 256.95C966.1 250.67 973.83 245.75 981.95 243.68C985.25 242.98 990.05 244.48 991.95 247.98C993.26 250.28 994.66 252.98 992.45 254.88C991.85 255.69 990.35 256.19 990.15 255.59C989.15 254.08 986.45 250.58 983.55 250.98C974.34 251.48 968.34 256.79 967.84 263.59C966.94 269.2 969.64 272.9 974.54 272.6C979.85 272.3 983.15 270.8 986.05 268.8C987.85 267.59 989.35 264.29 991.95 264.29C994.76 264.29 995.36 269.4 998.66 270.8C1001.54 272.07 1005.04 271.73 1008.28 271.03C1008.08 270.15 1007.97 269.21 1007.97 268.19C1008.07 256.89 1018.68 247.48 1026.78 244.78C1031.49 243.28 1038.59 247.58 1038.59 252.48C1038.39 254.88 1034.89 256.89 1031.99 256.89C1029.78 256.89 1029.78 252.98 1026.88 252.98C1022.88 252.98 1019.68 259.29 1019.78 264.59C1019.98 272.3 1027.98 274.5 1037.09 274.3C1044.24 274.09 1048.55 272.89 1053.34 270.47C1052.99 269.2 1052.8 267.78 1052.8 266.19C1052.9 256.69 1067.81 243.58 1077.62 243.08C1083.42 242.78 1087.53 245.58 1086.93 250.98C1085.73 259.19 1072.62 264.29 1065.31 267.29C1066.94 271.82 1069.43 273.67 1077.58 273.21C1080.2 273.06 1085.69 270.79 1092.95 269.98C1096.85 269.55 1101.89 272.66 1108.68 272.66C1113.58 272.66 1120.87 267.65 1127.55 268.41C1133.42 269.08 1141.4 274.09 1146.62 274.09C1155.64 274.09 1162.14 268.76 1171.53 268.76C1180.27 268.75 1188.82 274.07 1197.21 274.07C1202.76 274.06 1209.67 270.07 1214.83 270.06C1221.3 270.06 1225.88 274.05 1231.4 274.04C1238.05 274.04 1243.77 270.15 1248.44 270.15C1255.99 270.14 1263.04 274.13 1265.51 274.06C1270.61 273.91 1276.2 269.8 1281.81 267.29C1282.71 266.79 1284.34 265.94 1284.81 267.29C1285.3 268.7 1281.78 271.46 1281.18 272.06ZM1064.71 261.59C1070.31 260.89 1077.12 258.29 1077.12 252.58C1077.12 251.08 1076.42 249.78 1074.72 249.98C1071.22 250.28 1065.71 255.69 1065.01 258.79C1064.81 259.79 1064.71 260.69 1064.71 261.59Z" />
			</g>
			<path id="&lt;Path&gt;" class="shp0" d="M552.49 137.59C579.57 126.48 594.96 104.81 594.96 74.89C594.96 30.14 559.9 3.06 502.9 3.06L411.69 3.06L411.69 34.92C418.73 35.81 425.24 36.77 430.22 37.54C435.76 38.4 439.83 42.92 439.85 48.22L439.99 98.36C440.01 103.68 435.93 108.23 430.37 109.1C425.35 109.88 418.79 110.85 411.69 111.75L411.69 202.58L473.82 202.58L473.82 146.14L490.64 146.14L531.97 202.58L600.38 202.58L552.49 137.59Z" />
			<path id="&lt;Compound Path&gt;" class="shp0" d="M3.14 203.03L3.14 164.55L98.91 55.1L3.14 55.1L3.14 3.52L183.57 3.52L183.57 41.99L88.08 151.44L183.57 151.44L183.57 203.03L3.14 203.03Z" />
			<path id="&lt;Compound Path&gt;" class="shp0" d="M183.95 103.17C183.95 45.38 228.32 3.21 289.66 3.21C351.01 3.21 395.37 45.11 395.37 102.62C395.37 160.4 350.73 202.58 289.39 202.58C228.32 202.58 183.95 160.68 183.95 103.17Z" />
			<path id="&lt;Compound Path&gt;" fill-rule="evenodd" class="shp0" d="M996.93 202.58L985.53 172.37L904.6 172.37L892.91 202.58L828.51 202.58L914.28 3.52L976.41 3.52L1062.18 202.58L996.93 202.58ZM920.84 129.91L969.28 129.91L945.35 66.65L920.84 129.91Z" />
			<path id="&lt;Compound Path&gt;" class="shp0" d="M1219.28 202.58L1171.79 131.77L1144.77 162.48L1144.77 202.58L1082.78 202.58L1082.78 3.52L1144.77 3.52L1144.77 89.4L1211.32 3.52L1284.1 3.52L1210.39 89.92L1284.1 202.58L1219.28 202.58Z" />
			<g id="&lt;Group&gt;">
				<path id="&lt;Path&gt;" class="shp1" d="M231.73 117.41L270.27 134.87C270.87 135.16 271.58 135.15 272.16 134.83L282.17 129.38C283.73 128.7 283.83 126.57 282.34 125.72C280.49 124.66 278.57 123.63 276.6 122.64C258.09 113.38 242.17 111.85 231.89 115.37C230.96 115.69 230.86 116.93 231.73 117.41Z" />
				<path id="&lt;Path&gt;" class="shp1" d="M292.04 128.8C291.22 128.68 290.4 129.04 289.94 129.71L278.82 146.04C278.13 147.06 276.98 147.71 275.73 147.78L224.62 150.73C223.8 150.78 223.2 151.52 223.33 152.32C225.22 163.98 247.38 172.88 274.32 172.47C302.41 172.03 325.06 161.64 324.9 149.25C324.79 139.69 311.15 131.74 292.04 128.8Z" />
				<path id="&lt;Path&gt;" class="shp1" d="M362.76 49.34C356.88 40.83 346.72 36.36 336.44 37.48C328.22 38.38 320.28 39.7 312.75 41.33C312 41.49 311.7 42.4 312.21 42.96C314.4 45.34 315.58 48.66 315.06 52.25C314.33 57.2 310.25 61.13 305.28 61.7C298.49 62.47 292.74 57.18 292.74 50.55C292.74 49.69 292.84 48.86 293.03 48.05C293.2 47.31 292.47 46.67 291.74 46.9C285.92 48.75 280.53 50.72 275.71 52.72C263.9 57.63 255.42 61.11 251.81 67.51C250.41 70.01 246.46 71.99 246.46 74.65C246.46 77.48 250.51 79.64 252.12 82.3C255.85 88.5 264.2 91.8 275.71 96.58C280.77 98.69 286.47 100.75 292.64 102.68C293.36 102.9 294.06 102.27 293.92 101.53C293.61 99.95 293.63 98.26 294.1 96.49C295.23 92.26 298.81 88.99 303.14 88.33C310.13 87.25 316.15 92.62 316.15 99.41C316.15 102.16 315.15 104.68 313.5 106.63C313.02 107.2 313.33 108.09 314.06 108.24C328.05 111.18 343.43 113.08 359.25 113.08C362.28 113.08 365.6 112.96 369.07 112.74C374.38 112.41 378.55 108.02 378.6 102.7C378.6 102.42 378.6 102.14 378.6 101.85C378.6 81.92 372.88 63.99 362.76 49.34Z" />
				<path id="&lt;Path&gt;" class="shp1" d="M472.76 48.48L472.76 100.16C472.76 102.1 471.19 103.67 469.25 103.67L458.26 103.67C456.32 103.67 454.75 102.1 454.75 100.16L454.75 48.48C454.75 46.54 456.32 44.97 458.26 44.97L469.25 44.97C471.19 44.97 472.76 46.54 472.76 48.48Z" />
				<path id="&lt;Path&gt;" class="shp1" d="M487.78 46.78C487.78 49.43 487.78 97.46 487.78 100.11C487.78 108.63 494.69 115.54 503.21 115.54C511.73 115.54 518.64 108.63 518.64 100.11C518.64 97.46 517.97 94.97 516.8 92.79C522.88 88.51 526.85 81.45 526.85 73.44C526.85 65.44 522.88 58.38 516.8 54.1C517.97 51.92 518.64 49.43 518.64 46.78C518.64 38.26 511.73 31.35 503.21 31.35C494.69 31.35 487.78 38.26 487.78 46.78Z" />
				<path id="&lt;Path&gt;" class="shp1" d="M430.22 37.54C425.24 36.77 418.73 35.81 411.69 34.92L411.69 111.75C418.79 110.85 425.35 109.88 430.37 109.1C435.93 108.23 440.01 103.68 439.99 98.36L439.85 48.22C439.83 42.92 435.76 38.4 430.22 37.54Z" />
			</g>
			<path id="&lt;Compound Path&gt;" fill-rule="evenodd" class="shp0" d="M809.38 202.58L740.97 202.58L699.64 146.14L682.82 146.14L682.82 202.58L620.69 202.58L620.69 3.06L711.9 3.06C768.9 3.06 803.96 30.14 803.96 74.89C803.96 104.81 788.57 126.48 761.49 137.59L809.38 202.58ZM741.64 71.41C741.64 56.4 729.46 48.18 710.2 48.18L683.01 48.18L683.01 95.2L710.2 95.2C729.46 95.2 741.64 87.27 741.64 71.41Z" />
		</g>
	</g>
</svg>