<svg version="1.2" baseProfile="tiny-ps" xmlns="http://www.w3.org/2000/svg" viewBox="0 0 1500 600" width="1500" height="600">
	<title>ZORRAK_cista_prace_logo_humrova+modra_02-ai</title>
	<style>
		tspan { white-space:pre }
		.shp0 { fill: #191836 } 
		.shp1 { fill: #e1554b } 
	</style>
	<g id="Vrstva 1">
		<g id="&lt;Group&gt;">
			<g id="&lt;Group&gt;">
				<path id="&lt;Path&gt;" class="shp0" d="M746.17 380.87C747.07 382.07 748.37 383.17 749.47 382.97C751.47 382.97 754.07 381.57 754.68 379.37C757.58 376.47 762.18 371.16 763.28 370.06C764.28 368.96 765.58 368.36 765.58 367.26C765.78 366.46 765.08 366.16 763.28 366.26C760.78 366.26 755.98 371.16 753.17 373.97C751.97 374.87 751.47 375.47 750.47 374.87C747.87 372.36 742.67 367.86 738.66 366.16C737.26 365.36 735.46 365.36 733.56 366.96C732.96 367.26 733.46 368.16 734.16 368.86C738.66 373.27 741.97 376.27 746.17 380.87Z" />
				<path id="&lt;Path&gt;" class="shp0" d="M789.21 383C791.31 383 793.02 380.59 793.02 378.59C793.12 375.59 790.11 370.39 786.31 370.39C783.71 370.39 780.61 372.39 780.61 374.69C780.61 378.19 785.31 383 789.21 383Z" />
				<path id="&lt;Compound Path&gt;" fill-rule="evenodd" class="shp0" d="M846.54 409.79C847.34 418.7 831.33 428.51 822.03 428.31C817.02 428.11 807.52 426.4 807.12 420.4C807.06 420.19 807.01 419.97 806.96 419.75C806.91 419.8 806.86 419.86 806.81 419.9C802.61 423.8 796.51 426.81 789.8 426.81C782.9 426.81 779.19 423.43 777.26 418.83C769.18 423.48 761.97 426.4 750.37 426.4C740.56 426.4 729.86 423.4 729.86 413.19C729.96 401.89 740.56 392.48 748.67 389.78C753.37 388.28 760.48 392.58 760.48 397.48C760.28 399.88 756.78 401.89 753.87 401.89C751.67 401.89 751.67 397.98 748.77 397.98C744.77 397.98 741.57 404.29 741.67 409.59C741.87 417.3 749.87 419.5 758.98 419.3C766.56 419.08 770.94 417.75 776.09 415.03C775.24 411.04 775.26 406.65 775.49 402.89C775.39 398.08 779.21 388.37 784.82 388.37C786.02 388.37 787.12 389.47 787.22 390.58C787.22 393.58 784.5 399.18 784.8 403.39C785.2 409.99 787.9 418.8 796.51 418.8C800.21 418.8 803.91 417.3 806.61 416.4C806.7 416.37 806.77 416.36 806.85 416.34C806.98 415.93 807.19 415.57 807.52 415.3C816.32 408.29 815.64 402.09 821.24 391.79C822.94 388.78 826.95 385.48 830.45 383.48C832.05 382.58 833.95 382.88 834.15 384.78C834.95 390.69 833.37 390.58 833.97 396.48C834.67 402.19 845.84 403.79 846.54 409.79ZM830.34 404.84C829.57 403.98 828.18 401.53 825.75 401.18C822.98 400.78 815.32 412.09 814.62 415.3C813.89 418.64 823.83 419.2 826.03 419.2C829.33 419.2 835.84 418.4 835.84 414C835.92 410.89 835.11 410.18 830.34 404.84Z" />
				<path id="&lt;Path&gt;" class="shp0" d="M909.99 383.17C911.99 383.17 916.5 380.47 917.7 379.27C919.8 377.17 926.81 371.96 926.81 368.26C926.81 367.26 922.9 366.16 920.8 366.26C919.5 366.46 919 367.06 918.8 367.76C916.8 372.06 913.5 375.17 910.89 378.97C910.19 379.67 907.39 383.17 909.99 383.17Z" />
				<path id="&lt;Path&gt;" class="shp0" d="M944.22 414.9C940.12 416 934.41 417.7 930.11 415.8C926.81 414.4 926.21 409.29 923.4 409.29C920.8 409.29 919.3 412.59 917.5 413.8C914.6 415.8 911.29 417.3 905.99 417.6C901.09 417.9 898.38 414.2 899.29 408.59C899.79 401.79 905.79 396.48 915 395.98C917.9 395.58 920.6 399.08 921.6 400.59C921.8 401.19 923.3 400.69 923.9 399.88C926.11 397.98 924.7 395.28 923.4 392.98C921.5 389.48 916.7 387.98 913.4 388.68C900.58 391.95 888.74 402.3 888.14 413.93C882.79 416.51 877.81 417.7 874.17 417.7C862.66 417.7 862.26 405.29 862.36 398.28C862.36 397.38 862.46 397.28 862.76 395.28C867.06 394.68 871.86 394.08 875.77 393.18C880.17 392.28 882.07 391.28 882.97 389.28C883.97 387.08 880.47 387.38 879.07 387.58C873.77 387.78 869.26 388.98 863.26 388.98C863.86 383.27 864.26 375.87 864.26 373.77C864.26 372.26 863.26 369.86 861.86 370.36C857.15 372.06 856.65 377.07 856.15 379.37L854.85 388.68L852.75 388.98C850.05 389.28 846.65 391.38 846.55 394.28C846.55 396.48 848.95 396.48 850.65 396.48C851.25 396.48 852.35 396.48 853.95 396.28C854.05 407.69 851.25 427.71 868.96 427.71C876.61 427.71 884.12 423.71 888.79 418.65C890.68 422.88 896.5 425.56 901.39 425.3C907.79 424.8 915.5 418.4 917.7 420.4C920 422.7 922.7 425.3 926.91 425.3C930.91 425.3 939.12 422.6 944.92 416.4C945.22 416 945.02 414.8 944.22 414.9Z" />
				<path id="&lt;Path&gt;" class="shp0" d="M1008.39 387.58C998.88 387.58 989.47 395.98 983.57 403.29C983.67 401.29 983.97 399.28 984.17 397.28C984.37 394.38 984.77 390.58 984.47 387.38C984.37 386.37 983.97 384.47 982.27 384.47C979.96 384.47 977.56 387.08 976.16 389.48C974.16 392.98 974.16 397.98 974.06 399.58C973.36 407.69 972.96 413.9 972.86 419.8C972.76 425.9 972.96 431.71 973.36 439.21C973.46 441.62 974.36 451.32 978.56 451.92C981.17 452.22 985.17 448.12 984.57 445.72C982.97 438.81 982.37 431.51 982.37 424.2C982.37 420.2 982.57 416.3 982.77 412.29C984.57 409.39 987.07 405.89 988.87 404.19C992.47 400.69 994.57 398.08 1000.48 398.08C1003.48 398.08 1004.48 400.69 1004.18 403.29C1003.58 408.79 999.38 413.19 995.38 415.4C990.17 418.4 984.57 418.8 984.57 421.1C984.67 423.5 987.27 424.5 988.77 424.5C991.87 424.5 994.17 422.7 996.68 421.1C1004.88 416 1014.69 407.49 1014.69 397.18C1014.69 392.78 1013.99 387.58 1008.39 387.58Z" />
				<path id="&lt;Path&gt;" class="shp0" d="M1084.54 383.17C1086.55 383.17 1091.05 380.47 1092.25 379.27C1094.35 377.17 1101.36 371.96 1101.36 368.26C1101.36 367.26 1097.45 366.16 1095.35 366.26C1094.05 366.46 1093.55 367.06 1093.35 367.76C1091.35 372.06 1088.05 375.17 1085.45 378.97C1084.74 379.67 1081.94 383.17 1084.54 383.17Z" />
				<path id="&lt;Compound Path&gt;" fill-rule="evenodd" class="shp0" d="M1387.18 417.06C1382.09 420.82 1377.29 425.11 1368.12 424.19C1364.13 423.79 1362.31 421.2 1354.79 421.26C1350.15 421.3 1344.53 425.22 1337.98 425.26C1332.43 425.29 1327.81 421.32 1321.29 421.35C1316.24 421.37 1309.45 425.38 1304.02 425.4C1295.51 425.44 1286.8 420.14 1277.88 420.17C1268.6 420.2 1262.19 425.55 1253.2 425.58C1247.7 425.59 1239.34 420.53 1233.12 419.83C1226.72 419.12 1219.4 424.24 1214.61 424.26C1207.82 424.28 1202.77 420.59 1198.6 421.43C1188.89 423.39 1184.18 424.94 1181.07 425.3C1174.11 426.1 1165.02 425.19 1160.95 419.07C1153.03 423.58 1145.87 426.4 1134.48 426.4C1127.16 426.4 1119.34 424.73 1115.84 419.63C1110.62 423.55 1104.68 425.3 1101.46 425.3C1097.25 425.3 1094.55 422.7 1092.25 420.4C1090.05 418.4 1082.34 424.8 1075.94 425.3C1070.23 425.6 1063.23 421.9 1062.73 416.4C1062.44 413.09 1063.1 409.86 1064.47 406.82C1061.29 408.64 1057 409.39 1055.02 409.39C1047.02 409.39 1045.21 400.29 1042.81 400.29C1040.91 400.29 1038.81 403.29 1038.01 404.59C1034.21 411.49 1033.61 420.4 1031.4 427.51C1030.9 429.11 1029.9 430.01 1028.9 430.01C1027.3 430.01 1025.1 429.51 1024.6 427.91C1024.1 426.6 1024.1 424.1 1024.1 423.1C1023 413.69 1022.9 403.79 1023 393.78C1022.8 391.48 1025.8 385.27 1029.3 385.27C1032.1 385.27 1032.7 387.78 1032.6 389.18C1032.7 394.18 1031.2 400.29 1032 405.69C1036.11 400.29 1040.71 387.18 1047.52 387.18C1051.22 387.18 1051.62 394.38 1053.92 397.18C1058.12 402.19 1062.93 402.29 1066.53 401.79C1066.88 401.76 1067.15 401.83 1067.37 401.95C1072.1 395.67 1079.83 390.75 1087.95 388.68C1091.25 387.98 1096.05 389.48 1097.95 392.98C1099.26 395.28 1100.66 397.98 1098.45 399.88C1097.85 400.69 1096.35 401.19 1096.15 400.59C1095.15 399.08 1092.45 395.58 1089.55 395.98C1080.34 396.48 1074.34 401.79 1073.84 408.59C1072.94 414.2 1075.64 417.9 1080.54 417.6C1085.85 417.3 1089.15 415.8 1092.05 413.8C1093.85 412.59 1095.35 409.29 1097.95 409.29C1100.76 409.29 1101.36 414.4 1104.66 415.8C1107.54 417.07 1111.04 416.73 1114.28 416.03C1114.08 415.15 1113.97 414.21 1113.97 413.19C1114.07 401.89 1124.68 392.48 1132.78 389.78C1137.49 388.28 1144.59 392.58 1144.59 397.48C1144.39 399.88 1140.89 401.89 1137.99 401.89C1135.78 401.89 1135.78 397.98 1132.88 397.98C1128.88 397.98 1125.68 404.29 1125.78 409.59C1125.98 417.3 1133.98 419.5 1143.09 419.3C1150.24 419.09 1154.55 417.89 1159.34 415.47C1158.99 414.2 1158.8 412.78 1158.8 411.19C1158.9 401.69 1173.81 388.58 1183.62 388.08C1189.42 387.78 1193.53 390.58 1192.93 395.98C1191.73 404.19 1178.62 409.29 1171.31 412.29C1172.94 416.82 1175.43 418.67 1183.58 418.21C1186.2 418.06 1191.69 415.79 1198.95 414.98C1202.85 414.55 1207.89 417.66 1214.68 417.66C1219.58 417.66 1226.87 412.65 1233.55 413.41C1239.42 414.08 1247.4 419.09 1252.62 419.09C1261.64 419.09 1268.14 413.76 1277.53 413.76C1286.27 413.75 1294.82 419.07 1303.21 419.07C1308.76 419.06 1315.67 415.07 1320.83 415.06C1327.3 415.06 1331.88 419.05 1337.4 419.04C1344.05 419.04 1349.77 415.15 1354.44 415.15C1361.99 415.14 1369.04 419.13 1371.51 419.06C1376.61 418.91 1382.2 414.8 1387.81 412.29C1388.71 411.79 1390.34 410.94 1390.81 412.29C1391.3 413.7 1387.78 416.46 1387.18 417.06ZM1170.71 406.59C1176.31 405.89 1183.12 403.29 1183.12 397.58C1183.12 396.08 1182.42 394.78 1180.72 394.98C1177.22 395.28 1171.71 400.69 1171.01 403.79C1170.81 404.79 1170.71 405.69 1170.71 406.59Z" />
			</g>
			<path id="&lt;Path&gt;" class="shp0" d="M658.49 282.59C685.57 271.48 700.96 249.81 700.96 219.89C700.96 175.14 665.9 148.06 608.9 148.06L517.69 148.06L517.69 179.92C524.73 180.81 531.24 181.77 536.22 182.54C541.76 183.4 545.83 187.92 545.85 193.22L545.99 243.36C546.01 248.68 541.93 253.23 536.37 254.1C531.35 254.88 524.79 255.85 517.69 256.75L517.69 347.58L579.82 347.58L579.82 291.14L596.64 291.14L637.97 347.58L706.38 347.58L658.49 282.59Z" />
			<path id="&lt;Compound Path&gt;" class="shp0" d="M109.14 348.03L109.14 309.55L204.91 200.1L109.14 200.1L109.14 148.52L289.57 148.52L289.57 186.99L194.08 296.44L289.57 296.44L289.57 348.03L109.14 348.03Z" />
			<path id="&lt;Compound Path&gt;" class="shp0" d="M289.95 248.17C289.95 190.38 334.32 148.21 395.66 148.21C457.01 148.21 501.37 190.11 501.37 247.62C501.37 305.4 456.73 347.58 395.39 347.58C334.32 347.58 289.95 305.68 289.95 248.17Z" />
			<path id="&lt;Compound Path&gt;" fill-rule="evenodd" class="shp0" d="M1102.93 347.58L1091.53 317.37L1010.6 317.37L998.91 347.58L934.51 347.58L1020.28 148.52L1082.41 148.52L1168.18 347.58L1102.93 347.58ZM1026.84 274.91L1075.28 274.91L1051.35 211.65L1026.84 274.91Z" />
			<path id="&lt;Compound Path&gt;" class="shp0" d="M1325.28 347.58L1277.79 276.77L1250.77 307.48L1250.77 347.58L1188.78 347.58L1188.78 148.52L1250.77 148.52L1250.77 234.4L1317.32 148.52L1390.1 148.52L1316.39 234.92L1390.1 347.58L1325.28 347.58Z" />
			<g id="&lt;Group&gt;">
				<path id="&lt;Path&gt;" class="shp1" d="M337.73 262.41L376.27 279.87C376.87 280.16 377.58 280.15 378.16 279.83L388.17 274.38C389.73 273.7 389.83 271.57 388.34 270.72C386.49 269.66 384.57 268.63 382.6 267.64C364.09 258.38 348.17 256.85 337.89 260.37C336.96 260.69 336.86 261.93 337.73 262.41Z" />
				<path id="&lt;Path&gt;" class="shp1" d="M398.04 273.8C397.22 273.68 396.4 274.04 395.94 274.71L384.82 291.04C384.13 292.06 382.98 292.71 381.73 292.78L330.62 295.73C329.8 295.78 329.2 296.52 329.33 297.32C331.22 308.98 353.38 317.88 380.32 317.47C408.41 317.03 431.06 306.64 430.9 294.25C430.79 284.69 417.15 276.74 398.04 273.8Z" />
				<path id="&lt;Path&gt;" class="shp1" d="M468.76 194.34C462.88 185.83 452.72 181.36 442.44 182.48C434.22 183.38 426.28 184.7 418.75 186.33C418 186.49 417.7 187.4 418.21 187.96C420.4 190.34 421.58 193.66 421.06 197.25C420.33 202.2 416.25 206.13 411.28 206.7C404.49 207.47 398.74 202.18 398.74 195.55C398.74 194.69 398.84 193.86 399.03 193.05C399.2 192.31 398.47 191.67 397.74 191.9C391.92 193.75 386.53 195.72 381.71 197.72C369.9 202.63 361.42 206.11 357.81 212.51C356.41 215.01 352.46 216.99 352.46 219.65C352.46 222.48 356.51 224.64 358.12 227.3C361.85 233.5 370.2 236.8 381.71 241.58C386.77 243.69 392.47 245.75 398.64 247.68C399.36 247.9 400.06 247.27 399.92 246.53C399.61 244.95 399.63 243.26 400.1 241.49C401.23 237.26 404.81 233.99 409.14 233.33C416.13 232.25 422.15 237.62 422.15 244.41C422.15 247.16 421.15 249.68 419.5 251.63C419.02 252.2 419.33 253.09 420.06 253.24C434.05 256.18 449.43 258.08 465.25 258.08C468.28 258.08 471.6 257.96 475.07 257.74C480.38 257.41 484.55 253.02 484.6 247.7C484.6 247.42 484.6 247.14 484.6 246.85C484.6 226.92 478.88 208.99 468.76 194.34Z" />
				<path id="&lt;Path&gt;" class="shp1" d="M578.76 193.48L578.76 245.16C578.76 247.1 577.19 248.67 575.25 248.67L564.26 248.67C562.32 248.67 560.75 247.1 560.75 245.16L560.75 193.48C560.75 191.54 562.32 189.97 564.26 189.97L575.25 189.97C577.19 189.97 578.76 191.54 578.76 193.48Z" />
				<path id="&lt;Path&gt;" class="shp1" d="M593.78 191.78C593.78 194.43 593.78 242.46 593.78 245.11C593.78 253.63 600.69 260.54 609.21 260.54C617.73 260.54 624.64 253.63 624.64 245.11C624.64 242.46 623.97 239.97 622.8 237.79C628.88 233.51 632.85 226.45 632.85 218.44C632.85 210.44 628.88 203.38 622.8 199.1C623.97 196.92 624.64 194.43 624.64 191.78C624.64 183.26 617.73 176.35 609.21 176.35C600.69 176.35 593.78 183.26 593.78 191.78Z" />
				<path id="&lt;Path&gt;" class="shp1" d="M536.22 182.54C531.24 181.77 524.73 180.81 517.69 179.92L517.69 256.75C524.79 255.85 531.35 254.88 536.37 254.1C541.93 253.23 546.01 248.68 545.99 243.36L545.85 193.22C545.83 187.92 541.76 183.4 536.22 182.54Z" />
			</g>
			<path id="&lt;Compound Path&gt;" fill-rule="evenodd" class="shp0" d="M915.38 347.58L846.97 347.58L805.64 291.14L788.82 291.14L788.82 347.58L726.69 347.58L726.69 148.06L817.9 148.06C874.9 148.06 909.96 175.14 909.96 219.89C909.96 249.81 894.57 271.48 867.49 282.59L915.38 347.58ZM847.64 216.41C847.64 201.4 835.46 193.18 816.2 193.18L789.01 193.18L789.01 240.2L816.2 240.2C835.46 240.2 847.64 232.27 847.64 216.41Z" />
		</g>
	</g>
</svg>